<svg width="17" height="17" viewBox="0 0 17 17" fill="none" xmlns="http://www.w3.org/2000/svg">
<path id="Vector" d="M5.74348 0.51114C5.74461 0.152058 6.32826 -0.0162401 6.51743 0.289097C7.40701 1.72025 8.90562 3.81432 10.5436 4.72748C12.1814 5.63739 14.7541 5.80927 16.4384 5.80983C16.7974 5.81096 16.9625 6.39476 16.6571 6.58393C15.226 7.4735 13.1352 8.97197 12.222 10.6099C11.3088 12.2479 11.1402 14.8205 11.1397 16.5047C11.1385 16.8638 10.5515 17.029 10.3656 16.7235C9.47599 15.2924 7.97753 13.2015 6.33631 12.2885C4.69835 11.3753 2.12575 11.2067 0.444788 11.206C0.0857061 11.2049 -0.0827356 10.618 0.22274 10.4321C1.65389 9.54249 3.74797 8.04388 4.661 6.40266C5.5709 4.76484 5.74277 2.1921 5.74348 0.51114Z" fill="black"/>
</svg>
